# xmcd CD database file
#
# Track frame offsets:
#	150
#	20546
#	36704
#
# Disc length: 681 seconds
#
# Revision: 0
# Processed by: cddbd v1.5PL3 Copyright (c) Steve Scherf et al.
# Submitted via: CDex 1.50beta8
#
DISCID=2302a703
DTITLE=般若 - 極東エリア
DYEAR=2000
DGENRE=Hip-Hop
TTITLE0=極東エリア (裂VERSION)
TTITLE1=野武士の拳
TTITLE2=大きい赤ちゃん
EXTD=YEAR: 2000
EXTT0=
EXTT1=
EXTT2=
PLAYORDER=
